<?xml version="1.0" encoding="iso-8859-1"?><!DOCTYPE svg PUBLIC "-//W3C//DTD SVG 1.1//EN" "http://www.w3.org/Graphics/SVG/1.1/DTD/svg11.dtd"><svg width="98" height="83" viewBox="0 0 98 83" xmlns="http://www.w3.org/2000/svg" xmlns:xlink="http://www.w3.org/1999/xlink"><svg width="9" height="9" viewBox="0 0 284.929 284.929" id="arrow-down-gray" x="79" y="68" xmlns="http://www.w3.org/2000/svg"><path d="M282.082 76.511l-14.274-14.273c-1.902-1.906-4.093-2.856-6.57-2.856-2.471 0-4.661.95-6.563 2.856L142.466 174.441 30.262 62.241c-1.903-1.906-4.093-2.856-6.567-2.856-2.475 0-4.665.95-6.567 2.856L2.856 76.515C.95 78.417 0 80.607 0 83.082c0 2.473.953 4.663 2.856 6.565l133.043 133.046c1.902 1.903 4.093 2.854 6.567 2.854s4.661-.951 6.562-2.854L282.082 89.647c1.902-1.903 2.847-4.093 2.847-6.565 0-2.475-.945-4.665-2.847-6.571z" fill="#242a33"/></svg><svg width="9" height="9" viewBox="0 0 284.929 284.929" id="arrow-down-white" x="70" y="68" xmlns="http://www.w3.org/2000/svg"><path d="M282.082 76.511l-14.274-14.273c-1.902-1.906-4.093-2.856-6.57-2.856-2.471 0-4.661.95-6.563 2.856L142.466 174.441 30.262 62.241c-1.903-1.906-4.093-2.856-6.567-2.856-2.475 0-4.665.95-6.567 2.856L2.856 76.515C.95 78.417 0 80.607 0 83.082c0 2.473.953 4.663 2.856 6.565l133.043 133.046c1.902 1.903 4.093 2.854 6.567 2.854s4.661-.951 6.562-2.854L282.082 89.647c1.902-1.903 2.847-4.093 2.847-6.565 0-2.475-.945-4.665-2.847-6.571z" fill="#f4f4f5"/></svg><svg viewBox="0 0 492 492" width="12" height="12" id="arrow-left-blue" x="70" y="50" xmlns="http://www.w3.org/2000/svg"><path d="M198.608 246.104L382.664 62.04c5.068-5.056 7.856-11.816 7.856-19.024 0-7.212-2.788-13.968-7.856-19.032l-16.128-16.12C361.476 2.792 354.712 0 347.504 0s-13.964 2.792-19.028 7.864L109.328 227.008c-5.084 5.08-7.868 11.868-7.848 19.084-.02 7.248 2.76 14.028 7.848 19.112l218.944 218.932c5.064 5.072 11.82 7.864 19.032 7.864 7.208 0 13.964-2.792 19.032-7.864l16.124-16.12c10.492-10.492 10.492-27.572 0-38.06L198.608 246.104z" fill="#1f67c5"/></svg><svg viewBox="0 0 492.004 492.004" width="12" height="12" id="arrow-right-blue" x="29" y="68" xmlns="http://www.w3.org/2000/svg"><path d="M382.678 226.804L163.73 7.86C158.666 2.792 151.906 0 144.698 0s-13.968 2.792-19.032 7.86l-16.124 16.12c-10.492 10.504-10.492 27.576 0 38.064L293.398 245.9l-184.06 184.06c-5.064 5.068-7.86 11.824-7.86 19.028 0 7.212 2.796 13.968 7.86 19.04l16.124 16.116c5.068 5.068 11.824 7.86 19.032 7.86s13.968-2.792 19.032-7.86L382.678 265c5.076-5.084 7.864-11.872 7.848-19.088.016-7.244-2.772-14.028-7.848-19.108z" fill="#1f67c5"/></svg><svg width="9" height="9" viewBox="0 0 284.929 284.929" id="arrow-up-white" x="61" y="68" xmlns="http://www.w3.org/2000/svg"><path d="M282.082 195.285L149.028 62.24c-1.901-1.903-4.088-2.856-6.562-2.856s-4.665.953-6.567 2.856L2.856 195.285C.95 197.191 0 199.378 0 201.853c0 2.474.953 4.664 2.856 6.566l14.272 14.271c1.903 1.903 4.093 2.854 6.567 2.854s4.664-.951 6.567-2.854l112.204-112.202 112.208 112.209c1.902 1.903 4.093 2.848 6.563 2.848 2.478 0 4.668-.951 6.57-2.848l14.274-14.277c1.902-1.902 2.847-4.093 2.847-6.566.001-2.476-.944-4.666-2.846-6.569z" fill="#f4f4f5"/></svg><svg width="35" height="23" viewBox="0 0 35 23" id="card" xmlns="http://www.w3.org/2000/svg"><defs><path id="fa" d="M1078.88 2468.14v15.72c0 .58-.48 1.05-1.06 1.05h-27.63c-.59 0-1.06-.47-1.06-1.05v-15.72c0-.58.48-1.05 1.06-1.05h27.63c.59 0 1.06.47 1.06 1.05zm-28.69-3.14a3.17 3.17 0 0 0-3.19 3.14v15.72a3.16 3.16 0 0 0 3.19 3.14h27.62a3.17 3.17 0 0 0 3.19-3.14v-15.72a3.16 3.16 0 0 0-3.18-3.14z"/><path id="fb" d="M1049 2471h30v3h-30v-3z"/><path id="fc" d="M1059 2479v2h-7v-2zm17 0v2h-14v-2z"/></defs><use fill="#1e242d" xlink:href="#fa" transform="translate(-1046 -2464)"/><use fill="#1e242d" xlink:href="#fb" transform="translate(-1046 -2464)"/><use fill="#0258c3" xlink:href="#fc" transform="translate(-1046 -2464)"/></svg><svg width="16" height="16" viewBox="0 0 612 612" id="clock-blue" x="82" y="32" xmlns="http://www.w3.org/2000/svg"><g fill="#125ec2"><path d="M587.572 186.881c-32.266-75.225-87.096-129.934-162.949-162.285C386.711 8.427 346.992.168 305.497.168c-41.488 0-80.914 8.181-118.784 24.428-75.225 32.265-130.298 86.939-162.621 162.285C7.895 224.629 0 264.176 0 305.664c0 41.496 7.895 81.371 24.092 119.127 32.323 75.346 87.403 130.348 162.621 162.621 37.877 16.247 77.295 24.42 118.784 24.42 41.489 0 81.214-8.259 119.12-24.42C500.47 555.06 555.3 500.009 587.573 424.791 603.819 386.914 612 347.16 612 305.664c0-41.488-8.174-80.907-24.428-118.783zm-48.848 253.972c-24.021 41.195-56.929 73.876-98.375 98.039-41.195 24.021-86.332 36.135-134.845 36.135-36.47 0-71.27-7.024-104.4-21.415-33.129-14.384-61.733-33.294-85.661-57.215-23.928-23.928-42.973-52.811-57.214-85.997-14.199-33.065-21.08-68.258-21.08-104.735 0-48.52 11.921-93.428 35.807-134.509 23.971-41.231 56.886-73.947 98.039-98.04 41.146-24.092 85.99-36.142 134.502-36.142 48.52 0 93.649 12.121 134.845 36.142 41.446 24.164 74.283 56.879 98.375 98.039 24.092 41.153 36.135 85.99 36.135 134.509 0 48.521-11.964 93.735-36.128 135.189z"/><path d="M324.906 302.988V129.659c0-10.372-9.037-18.738-19.41-18.738-9.701 0-18.403 8.366-18.403 18.738v176.005c0 .336.671 1.678.671 2.678-.671 6.024 1.007 11.043 5.019 15.062L392.836 423.45c6.695 6.695 19.073 6.695 25.763 0 7.694-7.695 7.188-18.86 0-26.099l-93.693-94.363z"/></g></svg><svg viewBox="0 0 15.642 15.642" width="16" height="16" id="close-white" x="82" y="48" xmlns="http://www.w3.org/2000/svg"><path fill-rule="evenodd" d="M8.882 7.821l6.541-6.541A.75.75 0 1 0 14.362.219L7.821 6.76 1.28.22A.75.75 0 1 0 .219 1.281L6.76 7.822l-6.54 6.54a.75.75 0 0 0 1.06 1.061l6.541-6.541 6.541 6.541a.75.75 0 1 0 1.06-1.061l-6.54-6.541z" fill="#fff"/></svg><svg width="27" height="27" viewBox="0 0 27 27" id="headphones" y="23" xmlns="http://www.w3.org/2000/svg"><defs><path id="ia" d="M456 2475.1c0-.64.06-1.72.07-1.87a12.86 12.86 0 0 1 12.98-12.23c6.67 0 12.06 4.72 12.8 11.22.06.57.15 2.55.15 3.08a.8.8 0 0 1-.81.8.8.8 0 0 1-.81-.8c0-.52-.08-2.42-.14-2.89a11.04 11.04 0 0 0-11.18-9.81 11.26 11.26 0 0 0-11.35 10.72c-.01.15-.06 1.18-.07 1.8-.01-.01-1.66 2.12-1.64.42zm14.28 9.51c.38 0 .7.25.79.6l9.06-3.49a.81.81 0 0 1 1.06.43.78.78 0 0 1-.44 1.04l-8.37 3.23h-1.32a.8.8 0 0 1-.78.58h-2.45a.8.8 0 0 1-.81-.8v-.79c0-.44.36-.8.81-.8z"/><path id="ib" d="M457.99 2484c-1.1 0-1.99-.99-1.99-2.2v-5.58c0-1.23.89-2.22 1.99-2.22h2.02c1.1 0 1.99.99 1.99 2.21v5.58c0 1.22-.89 2.21-1.99 2.21zm-.49-7.51v5.02c0 .27.22.49.49.49h2.02a.5.5 0 0 0 .49-.49v-5.02a.5.5 0 0 0-.49-.49h-2.02a.5.5 0 0 0-.49.49z"/><path id="ic" d="M477.99 2484c-1.1 0-1.99-.99-1.99-2.2v-5.58c0-1.23.89-2.22 1.99-2.22h2.02c1.1 0 1.99.99 1.99 2.21v5.58c0 1.22-.89 2.21-1.99 2.21zm-.49-7.51v5.02c0 .27.22.49.49.49h2.02a.5.5 0 0 0 .49-.49v-5.02a.5.5 0 0 0-.49-.49h-2.02a.5.5 0 0 0-.49.49z"/></defs><use fill="#1e242d" xlink:href="#ia" transform="translate(-455 -2461)"/><use fill="#0258c3" xlink:href="#ib" transform="translate(-455 -2461)"/><use fill="#0258c3" xlink:href="#ic" transform="translate(-455 -2461)"/></svg><svg viewBox="0 0 24 24" width="10" height="10" id="minus-blue" x="62" y="39" xmlns="http://www.w3.org/2000/svg"><path d="M24 11c0-.6-.4-1-1-1H1c-.6 0-1 .4-1 1v2c0 .6.4 1 1 1h22c.6 0 1-.4 1-1v-2z" fill="#0d5bc1"/></svg><svg viewBox="0 0 24 24" width="10" height="10" id="minus-gray" x="51" y="68" xmlns="http://www.w3.org/2000/svg"><path d="M24 11c0-.6-.4-1-1-1H1c-.6 0-1 .4-1 1v2c0 .6.4 1 1 1h22c.6 0 1-.4 1-1v-2z" fill="#394960"/></svg><svg viewBox="0 0 424 424" width="18" height="18" id="mobile-menu-white" x="18" y="50" xmlns="http://www.w3.org/2000/svg"><g fill="#eef3fa"><path d="M35 89C15 89 0 74 0 54s15-36 35-36h353c20 0 36 16 36 36s-16 35-36 35H35zM388 176c20 0 36 16 36 36s-16 35-36 35H35c-20 0-35-15-35-35s15-36 35-36h353zM388 335c20 0 36 15 36 35s-16 36-36 36H35c-20 0-35-16-35-36s15-35 35-35h353z"/></g></svg><svg width="16" height="16" viewBox="0 0 396.454 396.454" id="phone-gray" x="82" xmlns="http://www.w3.org/2000/svg"><path d="M332.821 367.991c-11.233 12.985-92.111 94.404-213.951-95.18C-9.557 72.934 67.444 18.2 100.847 4.695l.005-.043c.53-.214 1.059-.378 1.597-.583a89.679 89.679 0 0 1 2.67-.971c.367-.118.752-.263 1.123-.381 4.699-1.545 7.692-2.049 7.692-2.049s-.021.088-.037.23c22.136-3.875 42.897 4.896 46.869 24.295l6.982 44.047c4.748 23.136-13.581 50.933-40.933 62.112l-2.213.897c14.472 50.233 43.696 108.053 100.981 160.677l4.213-3.666c22.285-19.409 55.352-23.245 73.878-8.611l32.559 28.295c18.067 14.287 17.38 39.744-3.412 59.047z" fill="#7e8fa5"/></svg><svg width="18" height="18" viewBox="0 0 512 512" id="placeholder-blue" y="50" xmlns="http://www.w3.org/2000/svg"><path d="M256 0C167.625 0 96 71.625 96 160c0 23.875 5.25 46.563 14.594 66.875l121.875 264.469C238.313 504.062 246.688 512 256 512s17.688-7.938 23.531-20.625l121.875-264.5C410.781 206.563 416 183.875 416 160 416 71.625 344.375 0 256 0zm0 256c-53 0-96-43-96-96s43-96 96-96 96 43 96 96-43 96-96 96z" fill="#0d5bc1"/></svg><svg viewBox="0 0 24 24" width="10" height="10" id="plus-blue" x="41" y="68" xmlns="http://www.w3.org/2000/svg"><path d="M23 10h-8.5c-.3 0-.5-.2-.5-.5V1c0-.6-.4-1-1-1h-2c-.6 0-1 .4-1 1v8.5c0 .3-.2.5-.5.5H1c-.6 0-1 .4-1 1v2c0 .6.4 1 1 1h8.5c.3 0 .5.2.5.5V23c0 .6.4 1 1 1h2c.6 0 1-.4 1-1v-8.5c0-.3.2-.5.5-.5H23c.6 0 1-.4 1-1v-2c0-.6-.4-1-1-1z" fill="#0d5bc1"/></svg><svg viewBox="0 0 24 24" width="10" height="10" id="plus-gray" x="72" y="39" xmlns="http://www.w3.org/2000/svg"><path d="M23 10h-8.5c-.3 0-.5-.2-.5-.5V1c0-.6-.4-1-1-1h-2c-.6 0-1 .4-1 1v8.5c0 .3-.2.5-.5.5H1c-.6 0-1 .4-1 1v2c0 .6.4 1 1 1h8.5c.3 0 .5.2.5.5V23c0 .6.4 1 1 1h2c.6 0 1-.4 1-1v-8.5c0-.3.2-.5.5-.5H23c.6 0 1-.4 1-1v-2c0-.6-.4-1-1-1z" fill="#394960"/></svg><svg viewBox="0 0 90 90" width="15" height="15" id="question-mark-white" y="68" xmlns="http://www.w3.org/2000/svg"><path d="M65.449 6.169C59.748 2.057 52.588 0 43.971 0c-6.559 0-12.09 1.449-16.588 4.34C20.25 8.871 16.457 16.562 16 27.412h16.531c0-3.158.922-6.203 2.766-9.137 1.846-2.932 4.975-4.396 9.389-4.396 4.488 0 7.58 1.19 9.271 3.568 1.693 2.381 2.539 5.018 2.539 7.91 0 2.513-1.262 4.816-2.781 6.91-.836 1.22-1.938 2.342-3.307 3.369 0 0-8.965 5.75-12.9 10.368-2.283 2.681-2.488 6.692-2.689 12.449-.014.409.143 1.255 1.576 1.255h12.857c1.275 0 1.541-.951 1.559-1.362.09-2.098.326-3.167.707-4.377.723-2.286 2.688-4.283 4.893-5.997l4.551-3.141c4.107-3.199 7.385-5.826 8.83-7.883C72.264 33.562 74 29.393 74 24.443c0-8.07-2.852-14.162-8.551-18.274zM43.705 69.617c-5.697-.17-10.398 3.771-10.578 9.951-.178 6.178 4.293 10.258 9.99 10.426 5.949.177 10.523-3.637 10.701-9.814.178-6.18-4.164-10.387-10.113-10.563z" fill="#fff"/></svg><svg viewBox="0 0 129 129" width="17" height="17" id="search-gray" x="53" y="50" xmlns="http://www.w3.org/2000/svg"><path d="M51.6 96.7c11 0 21-3.9 28.8-10.5l35 35c.8.8 1.8 1.2 2.9 1.2s2.1-.4 2.9-1.2c1.6-1.6 1.6-4.2 0-5.8l-35-35c6.5-7.8 10.5-17.9 10.5-28.8 0-24.9-20.2-45.1-45.1-45.1-24.8 0-45.1 20.3-45.1 45.1 0 24.9 20.3 45.1 45.1 45.1zm0-82c20.4 0 36.9 16.6 36.9 36.9C88.5 72 72 88.5 51.6 88.5S14.7 71.9 14.7 51.6c0-20.3 16.6-36.9 36.9-36.9z" fill="#a8b2c2"/></svg><svg viewBox="0 0 129 129" width="17" height="17" id="search-white" x="36" y="50" xmlns="http://www.w3.org/2000/svg"><path d="M51.6 96.7c11 0 21-3.9 28.8-10.5l35 35c.8.8 1.8 1.2 2.9 1.2s2.1-.4 2.9-1.2c1.6-1.6 1.6-4.2 0-5.8l-35-35c6.5-7.8 10.5-17.9 10.5-28.8 0-24.9-20.2-45.1-45.1-45.1-24.8 0-45.1 20.3-45.1 45.1 0 24.9 20.3 45.1 45.1 45.1zm0-82c20.4 0 36.9 16.6 36.9 36.9C88.5 72 72 88.5 51.6 88.5S14.7 71.9 14.7 51.6c0-20.3 16.6-36.9 36.9-36.9z" fill="#fff"/></svg><svg viewBox="0 0 459.529 459.529" width="19" height="19" id="shopping-cart-gray" x="62" y="20" xmlns="http://www.w3.org/2000/svg"><g fill="#7e8fa5"><path d="M17 55.231h48.733l69.417 251.033c1.983 7.367 8.783 12.467 16.433 12.467h213.35c6.8 0 12.75-3.967 15.583-10.2l77.633-178.5c2.267-5.383 1.7-11.333-1.417-16.15-3.117-4.817-8.5-7.65-14.167-7.65H206.833c-9.35 0-17 7.65-17 17s7.65 17 17 17H416.5l-62.9 144.5H164.333L94.917 33.698c-1.983-7.367-8.783-12.467-16.433-12.467H17c-9.35 0-17 7.65-17 17s7.65 17 17 17zM135.433 438.298c21.25 0 38.533-17.283 38.533-38.533s-17.283-38.533-38.533-38.533S96.9 378.514 96.9 399.764s17.283 38.534 38.533 38.534zM376.267 438.298h2.833c10.2-.85 19.55-5.383 26.35-13.317 6.8-7.65 9.917-17.567 9.35-28.05-1.417-20.967-19.833-37.117-41.083-35.7-21.25 1.417-37.117 20.117-35.7 41.083 1.416 20.117 18.133 35.984 38.25 35.984z"/></g></svg><svg viewBox="0 0 459.529 459.529" width="20" height="20" id="shopping-cart-white" x="62" xmlns="http://www.w3.org/2000/svg"><path d="M17 55.231h48.733l69.417 251.033c1.983 7.367 8.783 12.467 16.433 12.467h213.35c6.8 0 12.75-3.967 15.583-10.2l77.633-178.5c2.267-5.383 1.7-11.333-1.417-16.15-3.117-4.817-8.5-7.65-14.167-7.65H206.833c-9.35 0-17 7.65-17 17s7.65 17 17 17H416.5l-62.9 144.5H164.333L94.917 33.698c-1.983-7.367-8.783-12.467-16.433-12.467H17c-9.35 0-17 7.65-17 17s7.65 17 17 17zM135.433 438.298c21.25 0 38.533-17.283 38.533-38.533s-17.283-38.533-38.533-38.533S96.9 378.514 96.9 399.764s17.283 38.534 38.533 38.534z" fill="#FFF"/><path d="M376.267 438.298h2.833c10.2-.85 19.55-5.383 26.35-13.317 6.8-7.65 9.917-17.567 9.35-28.05-1.417-20.967-19.833-37.117-41.083-35.7-21.25 1.417-37.117 20.117-35.7 41.083 1.416 20.117 18.133 35.984 38.25 35.984z" fill="#fff"/></svg><svg width="26" height="24" viewBox="0 0 26 24" id="star" x="35" y="22" xmlns="http://www.w3.org/2000/svg"><defs><path id="va" d="M778.46 2473.9l-5 4.65 1.16 6.45c.12.65-.18 1.3-.78 1.68a1.99 1.99 0 0 1-2 .1l-5.95-2.98-5.95 2.98a1.98 1.98 0 0 1-1.94-.07l.91-1.14 5.9-2.95 1.08-.54 1.08.54 6 3-1.16-6.44-.2-1.08.84-.78 4.96-4.61-5.55.24-.71-.1 1.22-1.53 5.03-.32c.7.1 1.28.54 1.51 1.15.21.62.04 1.3-.45 1.75z"/><path id="vb" d="M768.29 2470.34l-.52-1.12-1.74-4.7-2.97 5.93-.53 1.04-1.19.17-6.76.97 4.93 4.73.83.8-.19 1.11-1.15 6.61.09-.05-.9 1.17-.06-.03a1.7 1.7 0 0 1-.78-1.73l1.16-6.62-4.97-4.77a1.68 1.68 0 0 1-.45-1.79c.23-.62.81-1.08 1.51-1.18l6.78-.97 2.95-5.9c.31-.62.97-1.01 1.7-1.01s1.39.39 1.71 1.01l1.71 4.67.18.54-1.21 1.23z"/></defs><use fill="#302323" xlink:href="#va" opacity=".9" transform="translate(-753 -2463)"/><use fill="#0258c3" xlink:href="#vb" opacity=".9" transform="translate(-753 -2463)"/></svg><svg width="27" height="22" viewBox="0 0 27 22" id="truck" x="35" xmlns="http://www.w3.org/2000/svg"><defs><path id="wa" d="M160.73 2480a.73.73 0 0 1-.73-.73v-14.54c0-.4.33-.73.73-.73h14.54c.4 0 .73.33.73.73v14.54c0 .4-.33.73-.73.73zm13.82-1.45v-13.1h-13.09v13.1z"/><path id="wb" d="M172.34 2476h-8.68c-.37 0-.66-.23-.66-.5s.29-.5.66-.5h8.68c.37 0 .66.23.66.5s-.29.5-.66.5z"/><path id="wc" d="M177.86 2480a.75.75 0 0 1-.76-.74c0-.4.34-.74.76-.74h6.75v-5.66l-2.22-4.37h-2.95v5.1h3.41c.42 0 .76.33.76.73 0 .41-.34.74-.76.74h-4.17a.75.75 0 0 1-.75-.74v-6.58c0-.41.34-.74.75-.74h4.17c.29 0 .54.16.68.4l2.49 4.94c.05.1.08.21.08.34v6.58a.73.73 0 0 1-.74.74zm1.26 1.83c0-.41.31-.75.69-.75.39 0 .7.34.7.75 0 .96.72 1.75 1.61 1.75.89 0 1.61-.79 1.61-1.75 0-.41.31-.75.7-.75.38 0 .69.34.69.75-.02 1.79-1.36 3.25-3.01 3.25-1.65 0-2.99-1.46-2.99-3.25zm-16.12 0c0-.41.31-.75.69-.75.39 0 .7.34.7.75 0 .96.72 1.75 1.61 1.75.89 0 1.61-.79 1.61-1.75 0-.41.31-.75.7-.75.38 0 .69.34.69.75-.02 1.79-1.36 3.25-3.01 3.25-1.65 0-2.99-1.46-2.99-3.25z"/></defs><use fill="#0258c3" xlink:href="#wa" transform="translate(-160 -2463)"/><use fill="#0258c3" xlink:href="#wb" transform="translate(-160 -2463)"/><use fill="#302323" xlink:href="#wc" transform="translate(-160 -2463)"/></svg><svg width="14" height="14" viewBox="0 0 485.211 485.21" id="user-gray" x="15" y="68" xmlns="http://www.w3.org/2000/svg"><path d="M394.235 333.585h-30.327c-33.495 0-60.653-27.158-60.653-60.654v-19.484c13.418-15.948 23.042-34.812 29.024-54.745.621-3.36 3.855-5.02 6.012-7.33 11.611-11.609 13.894-31.2 5.185-45.149-1.186-2.117-3.322-3.953-3.201-6.576 0-17.784.089-35.596-.023-53.366-.476-21.455-6.608-43.773-21.65-59.66-12.144-12.836-28.819-20.479-46.022-23.75-21.739-4.147-44.482-3.937-66.013 1.54-18.659 4.709-36.189 15.637-47.028 31.836-9.598 14.083-13.803 31.183-14.513 48.036-.266 18.094-.061 36.233-.116 54.371.413 3.631-2.667 6.088-4.058 9.094-8.203 14.881-4.592 35.155 8.589 45.978 3.344 2.308 3.97 6.515 5.181 10.142 5.748 17.917 15.282 34.487 27.335 48.925v20.138c0 33.496-27.157 60.654-60.651 60.654H90.978S36.014 348.743 0 424.56v30.327c0 16.759 13.564 30.321 30.327 30.321h424.562c16.759 0 30.322-13.562 30.322-30.321V424.56c-36.012-75.811-90.976-90.975-90.976-90.975z" fill="#7e8fa5"/></svg><svg width="16" height="16" viewBox="0 0 485.211 485.21" id="user-white" x="82" y="16" xmlns="http://www.w3.org/2000/svg"><path d="M394.235 333.585h-30.327c-33.495 0-60.653-27.158-60.653-60.654v-19.484c13.418-15.948 23.042-34.812 29.024-54.745.621-3.36 3.855-5.02 6.012-7.33 11.611-11.609 13.894-31.2 5.185-45.149-1.186-2.117-3.322-3.953-3.201-6.576 0-17.784.089-35.596-.023-53.366-.476-21.455-6.608-43.773-21.65-59.66-12.144-12.836-28.819-20.479-46.022-23.75-21.739-4.147-44.482-3.937-66.013 1.54-18.659 4.709-36.189 15.637-47.028 31.836-9.598 14.083-13.803 31.183-14.513 48.036-.266 18.094-.061 36.233-.116 54.371.413 3.631-2.667 6.088-4.058 9.094-8.203 14.881-4.592 35.155 8.589 45.978 3.344 2.308 3.97 6.515 5.181 10.142 5.748 17.917 15.282 34.487 27.335 48.925v20.138c0 33.496-27.157 60.654-60.651 60.654H90.978S36.014 348.743 0 424.56v30.327c0 16.759 13.564 30.321 30.327 30.321h424.562c16.759 0 30.322-13.562 30.322-30.321V424.56c-36.012-75.811-90.976-90.975-90.976-90.975z" fill="#fff"/></svg></svg>