<svg xmlns="http://www.w3.org/2000/svg" xmlns:xlink="http://www.w3.org/1999/xlink" width="35" height="23" viewBox="0 0 35 23"><defs><path id="a" d="M1078.88 2468.14v15.72c0 .58-.48 1.05-1.06 1.05h-27.63c-.59 0-1.06-.47-1.06-1.05v-15.72c0-.58.48-1.05 1.06-1.05h27.63c.59 0 1.06.47 1.06 1.05zm-28.69-3.14a3.17 3.17 0 0 0-3.19 3.14v15.72a3.16 3.16 0 0 0 3.19 3.14h27.62a3.17 3.17 0 0 0 3.19-3.14v-15.72a3.16 3.16 0 0 0-3.18-3.14z"/><path id="b" d="M1049 2471h30v3h-30v-3z"/><path id="c" d="M1059 2479v2h-7v-2zm17 0v2h-14v-2z"/></defs><g transform="translate(-1046 -2464)"><use fill="#1e242d" xlink:href="#a"/></g><g transform="translate(-1046 -2464)"><use fill="#1e242d" xlink:href="#b"/></g><g transform="translate(-1046 -2464)"><use fill="#0258c3" xlink:href="#c"/></g></svg>