<svg xmlns="http://www.w3.org/2000/svg" xmlns:xlink="http://www.w3.org/1999/xlink" width="27" height="27" viewBox="0 0 27 27"><defs><path id="a" d="M456 2475.1c0-.64.06-1.72.07-1.87a12.86 12.86 0 0 1 12.98-12.23c6.67 0 12.06 4.72 12.8 11.22.06.57.15 2.55.15 3.08a.8.8 0 0 1-.81.8.8.8 0 0 1-.81-.8c0-.52-.08-2.42-.14-2.89a11.04 11.04 0 0 0-11.18-9.81 11.26 11.26 0 0 0-11.35 10.72c-.01.15-.06 1.18-.07 1.8-.01-.01-1.66 2.12-1.64.42zm14.28 9.51c.38 0 .7.25.79.6l9.06-3.49a.81.81 0 0 1 1.06.43.78.78 0 0 1-.44 1.04l-8.37 3.23h-1.32a.8.8 0 0 1-.78.58h-2.45a.8.8 0 0 1-.81-.8v-.79c0-.44.36-.8.81-.8z"/><path id="b" d="M457.99 2484c-1.1 0-1.99-.99-1.99-2.2v-5.58c0-1.23.89-2.22 1.99-2.22h2.02c1.1 0 1.99.99 1.99 2.21v5.58c0 1.22-.89 2.21-1.99 2.21zm-.49-7.51v5.02c0 .27.22.49.49.49h2.02a.5.5 0 0 0 .49-.49v-5.02a.5.5 0 0 0-.49-.49h-2.02a.5.5 0 0 0-.49.49z"/><path id="c" d="M477.99 2484c-1.1 0-1.99-.99-1.99-2.2v-5.58c0-1.23.89-2.22 1.99-2.22h2.02c1.1 0 1.99.99 1.99 2.21v5.58c0 1.22-.89 2.21-1.99 2.21zm-.49-7.51v5.02c0 .27.22.49.49.49h2.02a.5.5 0 0 0 .49-.49v-5.02a.5.5 0 0 0-.49-.49h-2.02a.5.5 0 0 0-.49.49z"/></defs><g transform="translate(-455 -2461)"><use fill="#1e242d" xlink:href="#a"/></g><g transform="translate(-455 -2461)"><use fill="#0258c3" xlink:href="#b"/></g><g transform="translate(-455 -2461)"><use fill="#0258c3" xlink:href="#c"/></g></svg>