<svg xmlns="http://www.w3.org/2000/svg" xmlns:xlink="http://www.w3.org/1999/xlink" width="26" height="24" viewBox="0 0 26 24"><defs><path id="a" d="M778.46 2473.9l-5 4.65 1.16 6.45c.12.65-.18 1.3-.78 1.68a1.99 1.99 0 0 1-2 .1l-5.95-2.98-5.95 2.98a1.98 1.98 0 0 1-1.94-.07l.91-1.14 5.9-2.95 1.08-.54 1.08.54 6 3-1.16-6.44-.2-1.08.84-.78 4.96-4.61-5.55.24-.71-.1 1.22-1.53 5.03-.32c.7.1 1.28.54 1.51 1.15.21.62.04 1.3-.45 1.75z"/><path id="b" d="M768.29 2470.34l-.52-1.12-1.74-4.7-2.97 5.93-.53 1.04-1.19.17-6.76.97 4.93 4.73.83.8-.19 1.11-1.15 6.61.09-.05-.9 1.17-.06-.03a1.7 1.7 0 0 1-.78-1.73l1.16-6.62-4.97-4.77a1.68 1.68 0 0 1-.45-1.79c.23-.62.81-1.08 1.51-1.18l6.78-.97 2.95-5.9c.31-.62.97-1.01 1.7-1.01s1.39.39 1.71 1.01l1.71 4.67.18.54-1.21 1.23z"/></defs><g opacity=".9" transform="translate(-753 -2463)"><use fill="#302323" xlink:href="#a"/></g><g opacity=".9" transform="translate(-753 -2463)"><use fill="#0258c3" xlink:href="#b"/></g></svg>