<svg xmlns="http://www.w3.org/2000/svg" xmlns:xlink="http://www.w3.org/1999/xlink" width="27" height="22" viewBox="0 0 27 22"><defs><path id="a" d="M160.73 2480a.73.73 0 0 1-.73-.73v-14.54c0-.4.33-.73.73-.73h14.54c.4 0 .73.33.73.73v14.54c0 .4-.33.73-.73.73zm13.82-1.45v-13.1h-13.09v13.1z"/><path id="b" d="M172.34 2476h-8.68c-.37 0-.66-.23-.66-.5s.29-.5.66-.5h8.68c.37 0 .66.23.66.5s-.29.5-.66.5z"/><path id="c" d="M177.86 2480a.75.75 0 0 1-.76-.74c0-.4.34-.74.76-.74h6.75v-5.66l-2.22-4.37h-2.95v5.1h3.41c.42 0 .76.33.76.73 0 .41-.34.74-.76.74h-4.17a.75.75 0 0 1-.75-.74v-6.58c0-.41.34-.74.75-.74h4.17c.29 0 .54.16.68.4l2.49 4.94c.05.1.08.21.08.34v6.58a.73.73 0 0 1-.74.74zm1.26 1.83c0-.41.31-.75.69-.75.39 0 .7.34.7.75 0 .96.72 1.75 1.61 1.75.89 0 1.61-.79 1.61-1.75 0-.41.31-.75.7-.75.38 0 .69.34.69.75-.02 1.79-1.36 3.25-3.01 3.25-1.65 0-2.99-1.46-2.99-3.25zm-16.12 0c0-.41.31-.75.69-.75.39 0 .7.34.7.75 0 .96.72 1.75 1.61 1.75.89 0 1.61-.79 1.61-1.75 0-.41.31-.75.7-.75.38 0 .69.34.69.75-.02 1.79-1.36 3.25-3.01 3.25-1.65 0-2.99-1.46-2.99-3.25z"/></defs><g transform="translate(-160 -2463)"><use fill="#0258c3" xlink:href="#a"/></g><g transform="translate(-160 -2463)"><use fill="#0258c3" xlink:href="#b"/></g><g transform="translate(-160 -2463)"><use fill="#302323" xlink:href="#c"/></g></svg>